<svg width="1186" height="868" viewBox="0 0 1186 868" fill="none" xmlns="http://www.w3.org/2000/svg">
<path d="M1118.5 15L1185.62 131.25H1051.38L1118.5 15Z" fill="#CD074E"/>
<circle cx="119.5" cy="691.5" r="87.5" fill="#CD074E"/>
<path d="M353.14 105.161C354.482 105.485 355.833 104.66 356.157 103.318C356.481 101.975 355.656 100.625 354.313 100.301L353.14 105.161ZM858.846 765.105C857.47 764.99 856.261 766.012 856.146 767.388C856.031 768.763 857.053 769.972 858.429 770.087L858.846 765.105ZM330.052 124.059C328.698 124.33 327.821 125.648 328.092 127.002C328.364 128.355 329.681 129.233 331.035 128.962L330.052 124.059ZM419.893 118.009L419.848 115.51L419.848 115.51L419.893 118.009ZM386.405 105.109L387.251 102.756L386.405 105.109ZM232.453 50.7547L233.27 48.3919L232.453 50.7547ZM95.5049 0.88C94.1924 0.451168 92.7809 1.16751 92.3522 2.47996C91.9233 3.79237 92.6396 5.20391 93.9521 5.63275L95.5049 0.88ZM882.623 745.2C883.989 745 884.935 743.731 884.735 742.365C884.535 740.999 883.266 740.053 881.9 740.253L882.623 745.2ZM785.999 748.227L786.024 745.727L785.999 748.227ZM819.062 761.269L819.926 758.923L819.062 761.269ZM971.984 816.578L972.819 814.222L971.984 816.578ZM1108.21 867.37C1109.51 867.809 1110.93 867.104 1111.37 865.794C1111.81 864.485 1111.1 863.068 1109.79 862.63L1108.21 867.37ZM354.313 100.301C251.394 75.4585 160.432 59.8179 96.7354 56.4649C64.9423 54.7912 39.6764 56.1607 23.0744 61.1278C14.7818 63.6088 8.33559 67.0776 4.40257 71.8125C0.349892 76.6913 -0.809895 82.6433 0.977436 89.3872C2.72698 95.9884 7.28417 103.345 14.5625 111.484C21.8679 119.654 32.0629 128.775 45.3354 138.895C71.882 159.136 110.957 183.537 164.41 212.475C271.331 270.36 436.051 346.543 673.779 444.055L675.677 439.429C438.012 341.944 273.481 265.838 166.791 208.078C113.439 179.195 74.6185 154.935 48.3671 134.919C35.2406 124.91 25.311 116.003 18.2896 108.151C11.2409 100.269 7.26911 93.6095 5.81061 88.1063C4.39 82.7459 5.34344 78.5049 8.24871 75.0073C11.2735 71.3658 16.6296 68.2748 24.5076 65.918C40.2464 61.2092 64.7934 59.7903 96.4726 61.458C159.721 64.7874 250.341 80.3478 353.14 105.161L354.313 100.301ZM673.779 444.055C911.482 541.556 1041.52 610.559 1103.03 659.147C1118.38 671.279 1129.38 682.073 1136.7 691.649C1144.04 701.238 1147.57 709.459 1148.26 716.471C1149.58 730.08 1140.15 740.58 1122.2 748.636C1104.35 756.651 1079.02 761.75 1050.87 764.839C1022.77 767.923 992.072 768.984 963.602 769.024C935.139 769.064 908.943 768.084 889.862 767.094C880.322 766.598 872.563 766.101 867.191 765.727C864.505 765.54 862.416 765.384 861 765.275C860.292 765.221 859.752 765.178 859.39 765.149C859.209 765.134 859.072 765.123 858.981 765.116C858.935 765.112 858.901 765.109 858.879 765.107C858.867 765.106 858.859 765.106 858.853 765.105C858.848 765.105 858.846 765.105 858.637 767.596C858.429 770.087 858.432 770.088 858.439 770.088C858.445 770.089 858.454 770.089 858.466 770.09C858.49 770.092 858.525 770.095 858.572 770.099C858.666 770.107 858.805 770.118 858.989 770.133C859.357 770.162 859.902 770.206 860.616 770.261C862.044 770.371 864.145 770.527 866.844 770.715C872.241 771.09 880.03 771.59 889.602 772.087C908.745 773.081 935.033 774.065 963.609 774.024C992.178 773.984 1023.07 772.92 1051.42 769.809C1079.71 766.704 1105.67 761.54 1124.25 753.198C1142.74 744.897 1154.89 732.946 1153.23 715.986C1152.42 707.713 1148.33 698.62 1140.68 688.612C1133.01 678.592 1121.67 667.507 1106.13 655.224C1044.01 606.152 913.367 536.925 675.677 439.429L673.779 444.055ZM331.035 128.962C357.655 123.625 387.276 121.102 419.939 120.509L419.848 115.51C386.999 116.106 357.06 118.645 330.052 124.059L331.035 128.962ZM419.939 120.509C420.566 120.497 421.233 120.451 421.811 120.295C422.089 120.22 422.553 120.067 422.995 119.723C423.504 119.329 424.061 118.601 424.061 117.572C424.061 116.692 423.642 116.075 423.418 115.795C423.169 115.484 422.89 115.254 422.681 115.098C422.256 114.782 421.74 114.498 421.236 114.25C419.227 113.26 415.641 111.981 411.614 110.642C403.337 107.89 392.871 104.777 387.251 102.756L385.559 107.461C391.198 109.489 402.082 112.742 410.037 115.387C414.127 116.746 417.378 117.923 419.025 118.735C419.435 118.937 419.634 119.063 419.696 119.109C419.73 119.135 419.637 119.073 419.514 118.919C419.416 118.796 419.061 118.323 419.061 117.574C419.061 116.676 419.554 116.065 419.93 115.773C420.239 115.533 420.502 115.469 420.507 115.468C420.539 115.459 420.372 115.5 419.848 115.51L419.939 120.509ZM387.251 102.756C336.001 84.3249 284.697 66.1664 233.27 48.3919L231.637 53.1175C283.04 70.8841 334.325 89.0355 385.559 107.461L387.251 102.756ZM233.27 48.3919C187.419 32.5443 141.582 15.9347 95.5049 0.88L93.9521 5.63275C139.979 20.6711 185.687 37.2361 231.637 53.1175L233.27 48.3919ZM881.9 740.253C852.648 744.531 820.758 746.077 786.024 745.727L785.974 750.726C820.875 751.078 853.039 749.527 882.623 745.2L881.9 740.253ZM786.024 745.727C785.361 745.72 784.701 745.747 784.135 745.862C783.862 745.917 783.447 746.025 783.031 746.267C782.609 746.512 781.903 747.073 781.698 748.101C781.5 749.095 781.907 749.858 782.15 750.211C782.403 750.58 782.703 750.841 782.907 751.003C783.329 751.336 783.845 751.627 784.333 751.874C786.286 752.865 789.852 754.167 793.863 755.534C802.117 758.348 812.622 761.562 818.197 763.615L819.926 758.923C814.331 756.862 803.409 753.506 795.476 750.802C791.394 749.41 788.176 748.217 786.594 747.415C786.41 747.321 786.268 747.243 786.162 747.179C786.109 747.148 786.07 747.123 786.043 747.104C786.015 747.086 786.004 747.077 786.007 747.079C786.008 747.08 786.034 747.101 786.075 747.142C786.114 747.18 786.188 747.259 786.271 747.379C786.41 747.582 786.776 748.208 786.602 749.078C786.422 749.984 785.806 750.437 785.545 750.589C785.403 750.671 785.289 750.714 785.231 750.733C785.17 750.754 785.134 750.761 785.133 750.761C785.13 750.762 785.147 750.758 785.187 750.753C785.227 750.749 785.284 750.743 785.358 750.739C785.509 750.729 785.711 750.724 785.974 750.726L786.024 745.727ZM818.197 763.615C869.041 782.344 919.995 800.818 971.15 818.935L972.819 814.222C921.688 796.113 870.754 777.646 819.926 758.923L818.197 763.615ZM971.15 818.935C1016.76 835.088 1062.21 851.956 1108.21 867.37L1109.79 862.63C1063.85 847.232 1018.53 830.409 972.819 814.222L971.15 818.935Z" fill="white"/>
</svg>
