<svg width="853" height="721" viewBox="0 0 853 721" fill="none" xmlns="http://www.w3.org/2000/svg">
<path d="M339.237 74.8273C340.599 75.0527 341.886 74.1311 342.112 72.7689C342.337 71.4067 341.415 70.1197 340.053 69.8943L339.237 74.8273ZM550.718 655.171C549.345 655.312 548.345 656.54 548.487 657.914C548.628 659.287 549.856 660.286 551.229 660.145L550.718 655.171ZM320.936 97.0322C319.72 97.6859 319.264 99.2017 319.918 100.418C320.572 101.634 322.087 102.09 323.304 101.436L320.936 97.0322ZM377.687 77.9519L377.046 75.5354L377.046 75.5354L377.687 77.9519ZM359.178 70.0073L360.067 67.671L359.178 70.0073ZM273.372 38.3865L274.208 36.0303L273.372 38.3865ZM197.21 8.8321C195.895 8.41178 194.488 9.13721 194.068 10.4524C193.647 11.7676 194.373 13.1745 195.688 13.5948L197.21 8.8321ZM569.966 631.914C571.221 631.339 571.772 629.855 571.196 628.6C570.62 627.345 569.136 626.794 567.881 627.37L569.966 631.914ZM509.585 648.95L509.045 646.509L509.045 646.509L509.585 648.95ZM527.815 657.097L528.738 654.773L527.815 657.097ZM612.857 689.811L613.725 687.467L612.857 689.811ZM688.421 720.37C689.731 720.809 691.147 720.104 691.586 718.794C692.025 717.485 691.319 716.068 690.01 715.63L688.421 720.37ZM340.053 69.8943C280.945 60.1161 227.68 57.7122 189.188 63.6035C169.962 66.5462 154.196 71.5908 143.225 79.0049C132.157 86.4842 125.86 96.4777 126.087 109.023C126.309 121.36 132.841 135.666 146.144 151.964C159.482 168.306 179.846 186.918 208.251 207.905C265.068 249.886 354.39 301.616 484.975 363.904L487.128 359.391C356.663 297.16 267.668 245.59 211.222 203.884C182.996 183.028 162.992 164.699 150.017 148.802C137.007 132.862 131.279 119.632 131.086 108.933C130.897 98.4433 136.029 89.9025 146.024 83.1477C156.117 76.3276 171.048 71.4382 189.945 68.5459C227.699 62.7674 280.378 65.0902 339.237 74.8273L340.053 69.8943ZM484.975 363.904C615.468 426.149 684.31 475.571 714.48 514.494C729.526 533.904 734.763 550.454 733.541 564.532C732.32 578.598 724.604 590.711 712.654 601.16C688.636 622.161 648.34 635.709 613.668 643.996C596.4 648.124 580.65 650.919 569.217 652.683C563.502 653.564 558.869 654.187 555.669 654.589C554.068 654.79 552.827 654.936 551.987 655.032C551.567 655.079 551.248 655.115 551.034 655.138C550.928 655.149 550.848 655.158 550.795 655.163C550.768 655.166 550.748 655.168 550.736 655.169C550.729 655.17 550.725 655.171 550.722 655.171C550.719 655.171 550.718 655.171 550.974 657.658C551.229 660.145 551.232 660.145 551.236 660.144C551.24 660.144 551.246 660.143 551.253 660.143C551.268 660.141 551.29 660.139 551.318 660.136C551.376 660.13 551.46 660.121 551.571 660.109C551.794 660.085 552.122 660.049 552.551 660C553.41 659.902 554.671 659.754 556.292 659.55C559.534 659.143 564.213 658.514 569.979 657.624C581.509 655.846 597.397 653.026 614.831 648.859C649.564 640.557 690.932 626.796 715.945 604.924C728.511 593.937 737.154 580.723 738.522 564.964C739.889 549.217 733.947 531.446 718.432 511.431C687.483 471.505 617.685 421.666 487.128 359.391L484.975 363.904ZM323.304 101.436C340.176 92.3676 358.461 85.6376 378.328 80.3683L377.046 75.5354C356.897 80.8796 338.229 87.7374 320.936 97.0322L323.304 101.436ZM378.328 80.3683C378.788 80.2463 379.329 80.0629 379.817 79.7525C380.288 79.4528 381.071 78.7944 381.238 77.6393C381.405 76.4954 380.852 75.6539 380.515 75.2551C380.16 74.8359 379.735 74.5269 379.397 74.3106C378.105 73.4837 375.894 72.6731 373.675 71.9406C371.359 71.176 368.668 70.3839 366.222 69.6506C363.731 68.9038 361.532 68.2288 360.067 67.671L358.288 72.3436C359.955 72.9787 362.34 73.7067 364.786 74.44C367.277 75.1867 369.876 75.9518 372.108 76.6886C374.437 77.4574 376.031 78.0923 376.702 78.5223C376.855 78.6201 376.807 78.6135 376.696 78.4828C376.603 78.3725 376.162 77.8057 376.29 76.9204C376.421 76.024 377.016 75.6084 377.134 75.5333C377.269 75.4476 377.289 75.4709 377.046 75.5354L378.328 80.3683ZM360.067 67.671C331.542 56.8072 302.941 46.2203 274.208 36.0303L272.537 40.7427C301.227 50.9175 329.791 61.4908 358.288 72.3436L360.067 67.671ZM274.208 36.0303C248.667 26.9721 223.098 17.1058 197.21 8.8321L195.688 13.5948C221.483 21.8388 246.815 31.6203 272.537 40.7427L274.208 36.0303ZM567.881 627.37C549.566 635.775 530.04 641.871 509.045 646.509L510.124 651.391C531.38 646.695 551.258 640.499 569.966 631.914L567.881 627.37ZM509.045 646.509C508.573 646.613 508.038 646.769 507.551 647.033C507.11 647.272 506.277 647.837 505.989 648.946C505.68 650.132 506.207 651.063 506.554 651.51C506.904 651.962 507.336 652.288 507.665 652.508C508.926 653.352 511.129 654.194 513.329 654.955C515.634 655.751 518.322 656.584 520.763 657.353C523.25 658.137 525.443 658.844 526.892 659.42L528.738 654.773C527.086 654.117 524.707 653.354 522.266 652.585C519.78 651.801 517.184 650.997 514.963 650.229C512.639 649.425 511.075 648.774 510.444 648.352C510.3 648.256 510.377 648.281 510.505 648.446C510.63 648.608 511.071 649.27 510.827 650.206C510.603 651.065 509.988 651.399 509.933 651.429C509.833 651.483 509.854 651.451 510.124 651.391L509.045 646.509ZM526.892 659.42C555.128 670.637 583.47 681.587 611.988 692.155L613.725 687.467C585.25 676.914 556.945 665.978 528.738 654.773L526.892 659.42ZM611.988 692.155C637.337 701.549 662.634 711.728 688.421 720.37L690.01 715.63C664.315 707.019 639.256 696.928 613.725 687.467L611.988 692.155Z" fill="white"/>
<rect x="254.349" y="152.761" width="300" height="450" rx="25" transform="rotate(-7.68063 254.349 152.761)" fill="#CD074E"/>
<rect x="274.225" y="143.017" width="300" height="439" rx="25" transform="rotate(-7.68063 274.225 143.017)" fill="#0D0D0D"/>
<circle cx="538.134" cy="304.191" r="30" transform="rotate(-7.68063 538.134 304.191)" fill="#CD074E"/>
<circle cx="359.749" cy="328.248" r="30" transform="rotate(-7.68063 359.749 328.248)" fill="#585858"/>
<circle cx="371.777" cy="417.441" r="30" transform="rotate(-7.68063 371.777 417.441)" fill="#585858"/>
<circle cx="460.97" cy="405.412" r="30" transform="rotate(-7.68063 460.97 405.412)" fill="#585858"/>
<circle cx="550.162" cy="393.384" r="30" transform="rotate(-7.68063 550.162 393.384)" fill="#CD074E"/>
<circle cx="562.057" cy="481.585" r="30" transform="rotate(-7.68063 562.057 481.585)" fill="#CD074E"/>
<circle cx="472.865" cy="493.614" r="30" transform="rotate(-7.68063 472.865 493.614)" fill="#585858"/>
<circle cx="383.672" cy="505.643" r="30" transform="rotate(-7.68063 383.672 505.643)" fill="#585858"/>
<circle cx="448.941" cy="316.22" r="30" transform="rotate(-7.68063 448.941 316.22)" fill="#585858"/>
<rect x="308.634" y="173.693" width="240" height="100" rx="20" transform="rotate(-7.68063 308.634 173.693)" fill="#202020"/>
</svg>
