<svg width="146" height="78" viewBox="0 0 146 78" fill="none" xmlns="http://www.w3.org/2000/svg">
<path d="M12.8573 52.9309C11.7146 50.417 8.75038 49.3054 6.23648 50.4481C3.72258 51.5908 2.611 54.5551 3.7537 57.069L12.8573 52.9309ZM133.73 22.9425C135.908 24.6409 139.05 24.2526 140.748 22.0752C142.446 19.8978 142.058 16.7559 139.881 15.0575L133.73 22.9425ZM14.9077 60.4974C17.5282 61.3683 20.3586 59.95 21.2294 57.3295C22.1003 54.709 20.682 51.8786 18.0615 51.0077L14.9077 60.4974ZM6.51768 51.4735L4.15283 55.8789L4.15283 55.8789L6.51768 51.4735ZM6.08271 53.344L1.11523 52.7746L1.11523 52.7746L6.08271 53.344ZM5.36711 61.8609L0.373185 61.6146L0.373185 61.6146L5.36711 61.8609ZM0.0229207 69.6597C0.132379 72.4189 2.45793 74.567 5.21718 74.4576C7.97644 74.3481 10.1245 72.0226 10.0151 69.2633L0.0229207 69.6597ZM130.069 13.5651C127.485 12.591 124.601 13.896 123.627 16.48C122.653 19.0639 123.958 21.9482 126.542 22.9223L130.069 13.5651ZM138.095 22.9145L135.557 27.2227L135.557 27.2227L138.095 22.9145ZM138.604 21.0627L133.663 20.2969L133.663 20.2969L138.604 21.0627ZM139.656 12.5808L134.676 12.1367L134.676 12.1367L139.656 12.5808ZM145.306 5C145.306 2.23858 143.067 0 140.306 0C137.544 0 135.306 2.23858 135.306 5H145.306ZM3.7537 57.069C9.3228 69.3208 21.4198 79.3234 35.7415 77.5234C50.0822 75.7211 63.5833 62.4558 73.031 35.1341L63.5801 31.866C54.5278 58.0443 43.0289 66.5289 34.4945 67.6015C25.9413 68.6764 17.2883 62.6789 12.8573 52.9309L3.7537 57.069ZM73.031 35.1341C77.3651 22.6003 83.2773 16.2003 89.1567 13.081C95.0898 9.93318 101.79 9.70059 108.481 11.084C115.187 12.4705 121.508 15.4111 126.239 18.0922C128.583 19.4206 130.487 20.6568 131.794 21.5529C132.447 22.0002 132.948 22.3609 133.278 22.6034C133.442 22.7246 133.564 22.8161 133.641 22.874C133.679 22.903 133.706 22.9235 133.721 22.9351C133.728 22.9409 133.733 22.9444 133.734 22.9457C133.735 22.9463 133.735 22.9464 133.735 22.9459C133.734 22.9456 133.733 22.9448 133.733 22.9446C133.732 22.9437 133.73 22.9425 136.806 19C139.881 15.0575 139.879 15.0561 139.877 15.0545C139.876 15.0538 139.874 15.0521 139.872 15.0507C139.868 15.0478 139.864 15.0443 139.858 15.0402C139.848 15.0321 139.834 15.0216 139.818 15.0089C139.785 14.9834 139.739 14.9488 139.682 14.9056C139.568 14.8191 139.407 14.6982 139.201 14.5468C138.79 14.2441 138.199 13.8192 137.448 13.3046C135.948 12.2768 133.802 10.8841 131.169 9.39221C125.947 6.43272 118.612 2.96705 110.505 1.29108C102.384 -0.388036 93.115 -0.339385 84.47 4.24722C75.7713 8.86228 68.496 17.6497 63.5801 31.866L73.031 35.1341ZM18.0615 51.0077C14.618 49.8634 11.6377 48.5471 8.88253 47.0681L4.15283 55.8789C7.39807 57.6209 10.9047 59.1671 14.9077 60.4974L18.0615 51.0077ZM8.88253 47.0681C8.39476 46.8062 7.3369 46.319 5.94019 46.4084C4.23291 46.5177 2.85443 47.4256 2.02557 48.5941C1.35123 49.5448 1.16018 50.4838 1.09236 50.9028C1.01342 51.3905 1.00777 51.8129 1.01101 52.0683C1.01703 52.542 1.07278 53.0678 1.08267 53.1768C1.1166 53.5504 1.06324 53.2283 1.11523 52.7746L11.0502 53.9133C11.1379 53.1477 11.0514 52.379 11.0417 52.2727C11.008 51.9016 11.0099 51.9139 11.0102 51.9413C11.0106 51.9736 11.0142 52.1898 10.9639 52.5006C10.9247 52.7428 10.7817 53.5343 10.1821 54.3796C9.42794 55.4428 8.15092 56.2873 6.57915 56.388C5.31796 56.4687 4.42966 56.0275 4.15283 55.8789L8.88253 47.0681ZM1.11523 52.7746C0.779868 55.7006 0.51947 58.6487 0.373185 61.6146L10.361 62.1072C10.4947 59.397 10.7344 56.6681 11.0502 53.9133L1.11523 52.7746ZM0.373185 61.6146C0.274943 63.6064 -0.0882612 66.857 0.0229207 69.6597L10.0151 69.2633C9.92571 67.0108 10.2094 65.1827 10.361 62.1072L0.373185 61.6146ZM126.542 22.9223C129.937 24.2022 132.863 25.6356 135.557 27.2227L140.633 18.6063C137.459 16.737 134.016 15.053 130.069 13.5651L126.542 22.9223ZM135.557 27.2227C136.034 27.5037 137.072 28.0324 138.471 27.9985C140.182 27.9569 141.595 27.1044 142.469 25.9696C143.181 25.0464 143.409 24.1158 143.493 23.6998C143.592 23.2156 143.614 22.7937 143.621 22.5384C143.634 22.0649 143.599 21.5372 143.593 21.428C143.574 21.0532 143.615 21.3773 143.545 21.8285L133.663 20.2969C133.545 21.0585 133.601 21.83 133.606 21.9366C133.625 22.3087 133.624 22.2963 133.625 22.2689C133.625 22.2366 133.63 22.0205 133.693 21.7119C133.742 21.4715 133.916 20.6863 134.549 19.8654C135.344 18.8329 136.654 18.0397 138.228 18.0014C139.492 17.9707 140.362 18.4468 140.633 18.6063L135.557 27.2227ZM143.545 21.8285C143.996 18.9181 144.373 15.9826 144.637 13.0249L134.676 12.1367C134.435 14.8395 134.087 17.5567 133.663 20.2969L143.545 21.8285ZM144.637 13.0249C144.814 11.0385 145.306 7.80491 145.306 5H135.306C135.306 7.25426 134.95 9.06966 134.676 12.1367L144.637 13.0249Z" fill="#CD074E"/>
</svg>

