<svg width="190" height="70" viewBox="0 0 190 70" fill="none" xmlns="http://www.w3.org/2000/svg">
<path d="M27.6828 50.6896C27.5113 50.3125 27.0667 50.1458 26.6896 50.3172C26.3125 50.4886 26.1458 50.9332 26.3172 51.3103L27.6828 50.6896ZM155.039 15.5914C155.365 15.8462 155.837 15.7879 156.091 15.4613C156.346 15.1347 156.288 14.6634 155.961 14.4087L155.039 15.5914ZM34.9425 52.4643C35.3356 52.5949 35.7602 52.3822 35.8908 51.9891C36.0214 51.596 35.8087 51.1715 35.4156 51.0409L34.9425 52.4643ZM25.2121 47.4735L24.8574 48.1343H24.8574L25.2121 47.4735ZM24.7772 49.344L24.032 49.2586H24.032L24.7772 49.344ZM24.0616 57.8609L23.3125 57.824L24.0616 57.8609ZM22.964 65.4912C22.9805 65.9051 23.3293 66.2273 23.7432 66.2109C24.1571 66.1945 24.4793 65.8457 24.4629 65.4318L22.964 65.4912ZM147.265 13.5419C146.877 13.3958 146.444 13.5915 146.298 13.9791C146.152 14.3667 146.348 14.7993 146.735 14.9455L147.265 13.5419ZM156.789 18.9145L156.409 19.5607L156.789 18.9145ZM157.298 17.0627L156.557 16.9478V16.9478L157.298 17.0627ZM158.351 8.5808L157.604 8.51419L158.351 8.5808ZM159.75 1C159.75 0.585786 159.414 0.25 159 0.25C158.586 0.25 158.25 0.585786 158.25 1H159.75ZM26.3172 51.3103C31.4026 62.498 42.0359 70.7984 53.906 69.3066C65.779 67.8144 78.4291 56.5809 87.7088 29.7451L86.2912 29.2549C77.0708 55.9192 64.721 66.4355 53.719 67.8183C42.7141 69.2014 32.5974 61.5017 27.6828 50.6896L26.3172 51.3103ZM87.7088 29.7451C92.2902 16.4963 98.7817 9.08162 105.859 5.32662C112.945 1.56734 120.737 1.41292 128.036 2.92199C135.337 4.43154 142.089 7.59528 147.029 10.3947C149.495 11.7926 151.502 13.0953 152.891 14.0474C153.586 14.5233 154.125 14.9113 154.49 15.1794C154.672 15.3134 154.811 15.4174 154.903 15.4874C154.949 15.5224 154.984 15.5489 155.006 15.5664C155.018 15.5752 155.026 15.5817 155.032 15.5859C155.034 15.588 155.036 15.5895 155.037 15.5904C155.038 15.5909 155.038 15.5911 155.039 15.5913C155.039 15.5915 155.039 15.5914 155.5 15C155.961 14.4087 155.961 14.4083 155.96 14.4078C155.96 14.4075 155.959 14.4068 155.958 14.4061C155.956 14.4047 155.954 14.4027 155.95 14.4C155.943 14.3948 155.934 14.3873 155.921 14.3775C155.896 14.3579 155.858 14.3293 155.809 14.2922C155.711 14.2179 155.567 14.1094 155.378 13.9709C155.001 13.6938 154.448 13.2961 153.739 12.8101C152.322 11.8383 150.278 10.5121 147.768 9.08972C142.755 6.24853 135.851 3.00602 128.339 1.45306C120.826 -0.100371 112.649 0.0264566 105.156 4.00156C97.6558 7.98092 90.9598 15.7537 86.2912 29.2549L87.7088 29.7451ZM35.4156 51.0409C31.7344 49.8175 28.5303 48.4035 25.5669 46.8127L24.8574 48.1343C27.8944 49.7645 31.1774 51.213 34.9425 52.4643L35.4156 51.0409ZM25.5669 46.8127C25.4041 46.7253 25.1733 46.6326 24.9062 46.6497C24.5925 46.6698 24.3426 46.8329 24.1865 47.053C24.0536 47.2404 24.0046 47.4439 23.9822 47.5819C23.9582 47.7302 23.9534 47.8812 23.9551 48.0144C23.9584 48.2751 23.9897 48.5722 24.0097 48.7925C24.0333 49.0526 24.0394 49.194 24.032 49.2586L25.5223 49.4294C25.5507 49.1819 25.5236 48.8769 25.5036 48.6569C25.48 48.3973 25.4574 48.1809 25.455 47.9953C25.4539 47.9053 25.4583 47.8501 25.4629 47.8215C25.4692 47.7827 25.4682 47.8388 25.41 47.9208C25.3287 48.0355 25.1802 48.1353 25.0021 48.1467C24.8705 48.1551 24.8093 48.1084 24.8574 48.1343L25.5669 46.8127ZM24.032 49.2586C23.705 52.1118 23.4534 54.9667 23.3125 57.824L24.8107 57.8979C24.9497 55.079 25.1982 52.2569 25.5223 49.4294L24.032 49.2586ZM23.3125 57.824C23.1915 60.2764 22.8621 62.9224 22.964 65.4912L24.4629 65.4318C24.3642 62.9454 24.6817 60.5128 24.8107 57.8979L23.3125 57.824ZM146.735 14.9455C150.365 16.3138 153.511 17.8537 156.409 19.5607L157.17 18.2683C154.2 16.5189 150.977 14.9414 147.265 13.5419L146.735 14.9455ZM156.409 19.5607C156.568 19.6545 156.795 19.7562 157.062 19.7497C157.377 19.7421 157.633 19.589 157.798 19.3753C157.938 19.1933 157.995 18.9919 158.023 18.8549C158.053 18.7077 158.063 18.5569 158.067 18.4238C158.074 18.1632 158.054 17.8651 158.043 17.6441C158.03 17.3833 158.029 17.2418 158.039 17.1776L156.557 16.9478C156.519 17.194 156.534 17.4998 156.545 17.7204C156.558 17.9808 156.572 18.1979 156.567 18.3834C156.565 18.4734 156.558 18.5284 156.553 18.5567C156.545 18.5953 156.548 18.5393 156.609 18.4597C156.695 18.3483 156.848 18.2545 157.026 18.2501C157.158 18.2469 157.217 18.296 157.17 18.2683L156.409 19.5607ZM158.039 17.1776C158.479 14.3395 158.844 11.4968 159.098 8.64741L157.604 8.51419C157.353 11.3254 156.993 14.1353 156.557 16.9478L158.039 17.1776ZM159.098 8.64741C159.316 6.20175 159.75 3.57088 159.75 1H158.25C158.25 3.48828 157.836 5.90643 157.604 8.51419L159.098 8.64741Z" fill="white"/>
<path d="M22.356 44.236C22.524 44.476 22.608 44.728 22.608 44.992C22.608 45.352 22.476 45.64 22.212 45.856C21.972 46.048 21.696 46.144 21.384 46.144C21.072 46.144 20.808 46.012 20.592 45.748L10.548 33.112L5.652 37.72V44.884C5.628 45.22 5.508 45.496 5.292 45.712C5.076 45.904 4.812 46 4.5 46C4.164 46 3.888 45.904 3.672 45.712C3.48 45.496 3.384 45.22 3.384 44.884V21.916C3.384 21.58 3.492 21.316 3.708 21.124C3.924 20.908 4.2 20.8 4.536 20.8C4.872 20.8 5.136 20.908 5.328 21.124C5.544 21.316 5.652 21.58 5.652 21.916V34.984L20.196 21.232C20.412 20.992 20.676 20.872 20.988 20.872C21.276 20.872 21.516 20.98 21.708 21.196C21.924 21.412 22.032 21.652 22.032 21.916C22.032 22.204 21.924 22.456 21.708 22.672L12.276 31.492L22.356 44.236ZM49.0511 33.4C49.0511 35.872 48.5351 38.092 47.5031 40.06C46.4711 42.028 45.0431 43.576 43.2191 44.704C41.3951 45.808 39.3191 46.36 36.9911 46.36C34.6631 46.36 32.5871 45.808 30.7631 44.704C28.9391 43.576 27.5111 42.028 26.4791 40.06C25.4471 38.092 24.9311 35.872 24.9311 33.4C24.9311 30.904 25.4471 28.672 26.4791 26.704C27.5111 24.736 28.9391 23.2 30.7631 22.096C32.5871 20.992 34.6631 20.44 36.9911 20.44C39.3191 20.44 41.3951 20.992 43.2191 22.096C45.0431 23.2 46.4711 24.736 47.5031 26.704C48.5351 28.672 49.0511 30.904 49.0511 33.4ZM46.7471 33.4C46.7471 31.312 46.3271 29.452 45.4871 27.82C44.6711 26.164 43.5191 24.88 42.0311 23.968C40.5671 23.056 38.8871 22.6 36.9911 22.6C35.0951 22.6 33.4031 23.056 31.9151 23.968C30.4511 24.88 29.2991 26.164 28.4591 27.82C27.6431 29.452 27.2351 31.312 27.2351 33.4C27.2351 35.488 27.6431 37.36 28.4591 39.016C29.2991 40.648 30.4511 41.92 31.9151 42.832C33.4031 43.744 35.0951 44.2 36.9911 44.2C38.8871 44.2 40.5671 43.744 42.0311 42.832C43.5191 41.92 44.6711 40.648 45.4871 39.016C46.3271 37.36 46.7471 35.488 46.7471 33.4ZM62.2856 27.172C64.5176 27.172 66.1496 27.832 67.1816 29.152C68.2376 30.448 68.7656 32.176 68.7656 34.336V44.92C68.7656 45.232 68.6576 45.496 68.4416 45.712C68.2256 45.904 67.9736 46 67.6856 46C67.3736 46 67.1096 45.904 66.8936 45.712C66.7016 45.496 66.6056 45.232 66.6056 44.92V34.444C66.6056 32.884 66.2096 31.624 65.4176 30.664C64.6496 29.68 63.4496 29.188 61.8176 29.188C60.7856 29.188 59.8016 29.428 58.8656 29.908C57.9536 30.388 57.2096 31.036 56.6336 31.852C56.0576 32.644 55.7696 33.508 55.7696 34.444V44.92C55.7696 45.232 55.6616 45.496 55.4456 45.712C55.2536 45.904 55.0016 46 54.6896 46C54.3776 46 54.1136 45.904 53.8976 45.712C53.7056 45.496 53.6096 45.232 53.6096 44.92V28.792C53.6096 28.48 53.7056 28.228 53.8976 28.036C54.1136 27.82 54.3776 27.712 54.6896 27.712C55.0016 27.712 55.2536 27.82 55.4456 28.036C55.6616 28.228 55.7696 28.48 55.7696 28.792V30.772C56.4176 29.74 57.3416 28.888 58.5416 28.216C59.7656 27.52 61.0136 27.172 62.2856 27.172ZM88.1423 27.244C88.3823 27.244 88.6103 27.328 88.8263 27.496C89.0423 27.664 89.1503 27.88 89.1503 28.144C89.1503 28.36 89.1023 28.564 89.0063 28.756L81.9503 45.316C81.8543 45.508 81.7103 45.676 81.5183 45.82C81.3503 45.94 81.1703 46 80.9783 46C80.7383 46.024 80.5223 45.976 80.3303 45.856C80.1383 45.736 79.9943 45.556 79.8983 45.316L72.8063 28.756C72.8063 28.708 72.7823 28.636 72.7343 28.54C72.7103 28.444 72.6983 28.348 72.6983 28.252C72.6983 27.964 72.7943 27.724 72.9863 27.532C73.1783 27.316 73.4543 27.208 73.8143 27.208C74.0303 27.208 74.2223 27.28 74.3903 27.424C74.5823 27.544 74.7263 27.712 74.8223 27.928L80.9423 42.508L87.0983 27.928C87.1943 27.712 87.3263 27.544 87.4943 27.424C87.6863 27.28 87.9023 27.22 88.1423 27.244ZM108.677 35.74C108.677 36.028 108.569 36.28 108.353 36.496C108.137 36.688 107.885 36.784 107.597 36.784H93.9893C93.9893 38.224 94.2773 39.52 94.8533 40.672C95.4533 41.8 96.2933 42.7 97.3733 43.372C98.4773 44.02 99.7733 44.344 101.261 44.344C102.413 44.344 103.445 44.104 104.357 43.624C105.269 43.144 106.001 42.532 106.553 41.788C106.817 41.572 107.069 41.464 107.309 41.464C107.549 41.464 107.765 41.56 107.957 41.752C108.149 41.944 108.245 42.16 108.245 42.4C108.245 42.664 108.125 42.916 107.885 43.156C107.117 44.092 106.145 44.86 104.969 45.46C103.817 46.06 102.593 46.36 101.297 46.36C99.4493 46.36 97.8173 45.964 96.4013 45.172C94.9853 44.38 93.8813 43.276 93.0893 41.86C92.2973 40.42 91.9013 38.764 91.9013 36.892C91.9013 34.924 92.2853 33.208 93.0533 31.744C93.8453 30.256 94.8893 29.128 96.1853 28.36C97.4813 27.568 98.8613 27.172 100.325 27.172C101.765 27.172 103.109 27.508 104.357 28.18C105.629 28.852 106.661 29.836 107.453 31.132C108.245 32.428 108.653 33.964 108.677 35.74ZM100.325 29.26C98.9333 29.26 97.6373 29.74 96.4373 30.7C95.2613 31.66 94.5053 33.04 94.1693 34.84H106.445V34.552C106.325 33.472 105.965 32.536 105.365 31.744C104.765 30.928 104.009 30.316 103.097 29.908C102.209 29.476 101.285 29.26 100.325 29.26ZM121.733 27.172C122.213 27.172 122.645 27.268 123.029 27.46C123.413 27.652 123.605 27.94 123.605 28.324C123.605 28.66 123.509 28.936 123.317 29.152C123.125 29.344 122.897 29.44 122.633 29.44C122.513 29.44 122.273 29.38 121.913 29.26C121.577 29.14 121.253 29.08 120.941 29.08C120.053 29.08 119.165 29.428 118.277 30.124C117.413 30.796 116.693 31.672 116.117 32.752C115.565 33.832 115.289 34.924 115.289 36.028V44.92C115.289 45.232 115.181 45.496 114.965 45.712C114.773 45.904 114.521 46 114.209 46C113.897 46 113.633 45.904 113.417 45.712C113.225 45.496 113.129 45.232 113.129 44.92V28.792C113.129 28.48 113.225 28.228 113.417 28.036C113.633 27.82 113.897 27.712 114.209 27.712C114.521 27.712 114.773 27.82 114.965 28.036C115.181 28.228 115.289 28.48 115.289 28.792V31.96C115.841 30.592 116.669 29.464 117.773 28.576C118.901 27.664 120.221 27.196 121.733 27.172ZM130.581 29.692V41.752C130.581 42.664 130.749 43.288 131.085 43.624C131.421 43.936 131.865 44.092 132.417 44.092C132.561 44.092 132.741 44.068 132.957 44.02C133.173 43.948 133.341 43.912 133.461 43.912C133.677 43.912 133.857 44.008 134.001 44.2C134.169 44.368 134.253 44.572 134.253 44.812C134.253 45.148 134.061 45.436 133.677 45.676C133.293 45.892 132.837 46 132.309 46C131.661 46 131.085 45.94 130.581 45.82C130.077 45.7 129.585 45.34 129.105 44.74C128.649 44.14 128.421 43.18 128.421 41.86V29.692H125.793C125.505 29.692 125.253 29.596 125.037 29.404C124.845 29.212 124.749 28.972 124.749 28.684C124.749 28.396 124.845 28.156 125.037 27.964C125.253 27.772 125.505 27.676 125.793 27.676H128.421V23.68C128.421 23.368 128.517 23.116 128.709 22.924C128.925 22.708 129.189 22.6 129.501 22.6C129.813 22.6 130.065 22.708 130.257 22.924C130.473 23.116 130.581 23.368 130.581 23.68V27.676H134.181C134.445 27.676 134.673 27.784 134.865 28C135.081 28.216 135.189 28.456 135.189 28.72C135.189 29.008 135.093 29.248 134.901 29.44C134.709 29.608 134.469 29.692 134.181 29.692H130.581ZM154.012 43.876C154.324 43.876 154.576 43.984 154.768 44.2C154.984 44.416 155.092 44.668 155.092 44.956C155.092 45.268 154.984 45.52 154.768 45.712C154.576 45.904 154.324 46 154.012 46H140.8C140.488 46 140.224 45.904 140.008 45.712C139.816 45.496 139.72 45.232 139.72 44.92V21.88C139.72 21.568 139.816 21.316 140.008 21.124C140.224 20.908 140.488 20.8 140.8 20.8H154.012C154.324 20.8 154.576 20.908 154.768 21.124C154.984 21.316 155.092 21.568 155.092 21.88C155.092 22.192 154.984 22.444 154.768 22.636C154.576 22.828 154.324 22.924 154.012 22.924H141.988V31.96H152.392C152.704 31.96 152.956 32.068 153.148 32.284C153.364 32.476 153.472 32.728 153.472 33.04C153.472 33.352 153.364 33.604 153.148 33.796C152.956 33.988 152.704 34.084 152.392 34.084H141.988V43.876H154.012ZM178.577 44.056C178.937 44.296 179.117 44.596 179.117 44.956C179.117 45.076 179.069 45.232 178.973 45.424C178.877 45.592 178.745 45.724 178.577 45.82C178.409 45.916 178.229 45.964 178.037 45.964C177.797 45.964 177.593 45.916 177.425 45.82C176.753 45.436 176.213 44.812 175.805 43.948C175.397 43.084 175.193 41.704 175.193 39.808C175.193 38.128 174.725 36.952 173.789 36.28C172.853 35.584 171.737 35.236 170.441 35.236H162.449V44.92C162.449 45.232 162.353 45.496 162.161 45.712C161.969 45.904 161.717 46 161.405 46C161.069 46 160.781 45.904 160.541 45.712C160.301 45.496 160.181 45.232 160.181 44.92V21.88C160.181 21.568 160.277 21.316 160.469 21.124C160.685 20.908 160.949 20.8 161.261 20.8H170.981C172.349 20.8 173.573 21.1 174.653 21.7C175.733 22.276 176.573 23.08 177.173 24.112C177.797 25.144 178.109 26.308 178.109 27.604C178.109 29.14 177.701 30.496 176.885 31.672C176.093 32.824 175.049 33.616 173.753 34.048C174.809 34.456 175.673 35.152 176.345 36.136C177.017 37.096 177.365 38.272 177.389 39.664C177.413 41.152 177.509 42.196 177.677 42.796C177.869 43.396 178.169 43.816 178.577 44.056ZM171.089 33.256C171.929 33.184 172.709 32.908 173.429 32.428C174.149 31.948 174.725 31.3 175.157 30.484C175.589 29.668 175.805 28.732 175.805 27.676C175.805 26.308 175.337 25.18 174.401 24.292C173.489 23.38 172.289 22.924 170.801 22.924H162.449V33.256H171.089Z" fill="#CD074E"/>
</svg>
